<svg width="72" height="72" viewBox="0 0 72 72" fill="none" xmlns="http://www.w3.org/2000/svg">
<path d="M33.4219 26.5449C33.4219 25.1211 34.5761 23.9668 36 23.9668C37.4239 23.9668 38.5781 25.1211 38.5781 26.5449C38.5781 27.9688 37.4239 29.123 36 29.123C34.5761 29.123 33.4219 27.9688 33.4219 26.5449ZM33.4219 35.998C33.4219 34.5742 34.5761 33.4199 36 33.4199C37.4239 33.4199 38.5781 34.5742 38.5781 35.998C38.5781 37.4219 37.4239 38.5762 36 38.5762C34.5761 38.5762 33.4219 37.4219 33.4219 35.998ZM36 42.873C34.5761 42.873 33.4219 44.0273 33.4219 45.4512C33.4219 46.875 34.5761 48.0293 36 48.0293C37.4239 48.0293 38.5781 46.875 38.5781 45.4512C38.5781 44.0273 37.4239 42.873 36 42.873Z" fill="#21201F"/>
</svg>
