<svg width="92" height="32" viewBox="0 0 92 32" fill="none" xmlns="http://www.w3.org/2000/svg">
<path d="M11.3297 27.3809C14.1797 27.3809 16.1177 26.3549 17.2957 25.5569V21.8709C15.7757 22.9729 14.1037 23.8089 11.6717 23.8089C7.49169 23.8089 5.51569 20.4269 5.51569 13.8149C5.51569 7.01294 7.4157 3.78294 11.8997 3.78294C13.9897 3.78294 15.9277 4.69494 17.2957 5.56894V1.88294C16.0797 1.00894 14.1037 0.210938 11.6717 0.210938C4.64169 0.210938 0.841797 5.37894 0.841797 13.8149C0.841797 22.4789 4.7937 27.3809 11.3297 27.3809ZM31.3667 27.0009H36.4967L29.2387 16.7029L35.6227 7.88694H31.0627L24.6787 16.7029V7.88694H20.1567V27.0009H24.6787V17.6149L31.3667 27.0009ZM36.7087 23.0869V27.0009C36.7087 27.0009 37.4307 27.3809 38.4947 27.3809C42.3707 27.3809 43.3587 24.6449 43.5867 18.2989L43.8527 11.4589H48.4507V27.0009H52.9727V7.88694H40.0147L39.6347 18.1089C39.4827 22.1749 39.2167 23.4289 37.7347 23.4289C37.0887 23.4289 36.7087 23.0869 36.7087 23.0869ZM71.0717 13.9669C71.0717 9.33094 68.7157 7.58294 63.9277 7.58294C60.9257 7.58294 58.5697 8.53294 57.2017 9.33094V13.0929C58.4177 12.1809 61.0777 11.1929 63.3957 11.1929C65.5617 11.1929 66.5497 11.9529 66.5497 14.0049V15.0689H65.8277C58.9117 15.0689 55.8337 17.3489 55.8337 21.2249C55.8337 25.1009 58.1897 27.2669 61.6857 27.2669C64.3457 27.2669 65.4857 26.3929 66.3597 25.4809H66.5497C66.5877 25.9749 66.7397 26.6209 66.8917 27.0009H71.2997C71.1477 25.4429 71.0717 23.8849 71.0717 22.3269V13.9669ZM66.5497 22.4409C65.9797 23.2769 64.9157 23.9609 63.3197 23.9609C61.4197 23.9609 60.4697 22.8209 60.4697 21.1109C60.4697 18.8689 62.0277 18.0709 65.9037 18.0709H66.5497V22.4409ZM91.5037 23.4289H89.4897V7.88694H76.3037V9.52094C76.3037 14.1949 75.9997 20.2369 74.4037 23.4289H72.9977V31.3709H77.1777V27.0009H87.3237V31.3709H91.5037V23.4289ZM84.9677 23.4289H78.5837C79.8377 20.5409 80.1797 15.3349 80.1797 12.0289V11.4589H84.9677V23.4289Z" fill="#21201F"/>
</svg>
