<svg width="43" height="44" viewBox="0 0 43 44" fill="none" xmlns="http://www.w3.org/2000/svg">
<mask id="mask0_899_8430" style="mask-type:alpha" maskUnits="userSpaceOnUse" x="0" y="0" width="43" height="44">
<path d="M21.1902 43.189C32.8932 43.189 42.3804 33.7018 42.3804 21.9988C42.3804 10.2958 32.8932 0.808594 21.1902 0.808594C9.48718 0.808594 0 10.2958 0 21.9988C0 33.7018 9.48718 43.189 21.1902 43.189Z" fill="white"/>
</mask>
<g mask="url(#mask0_899_8430)">
<path d="M42.3804 0.808594H0V43.189H42.3804V0.808594Z" fill="#FC3F1D"/>
<path d="M24.1765 34.7349H28.6036V9.30664H22.1642C15.6882 9.30664 12.2856 12.6361 12.2856 17.5388C12.2856 21.4536 14.1515 23.7587 17.481 26.1368L11.7002 34.7349H16.4931L22.9325 25.1124L20.7007 23.6123C17.9932 21.7829 16.6761 20.356 16.6761 17.2827C16.6761 14.5752 18.5786 12.7459 22.2008 12.7459H24.1765V34.7349Z" fill="white"/>
</g>
</svg>
