<svg width="25" height="20" viewBox="0 0 25 20" fill="none" xmlns="http://www.w3.org/2000/svg">
<path d="M0.834473 2.29914V6.49984H3.16781V2.99984H6.66781V0.666504H2.46781C2.03487 0.666936 1.61979 0.839061 1.31359 1.14513C1.00739 1.45119 0.83509 1.8662 0.834473 2.29914Z" fill="black"/>
<path d="M24.1667 2.29914C24.166 1.8662 23.9937 1.45119 23.6875 1.14513C23.3814 0.839061 22.9663 0.666936 22.5333 0.666504H18.3333V2.99984H21.8333V6.49984H24.1667V2.29914Z" fill="black"/>
<path d="M21.8333 13.4998H24.1667V17.6998C24.1662 18.1329 23.9939 18.548 23.6877 18.8542C23.3815 19.1604 22.9664 19.3327 22.5333 19.3332H18.3333V16.9998H21.8333V13.4998Z" fill="black"/>
<path d="M0.834473 17.6998C0.834967 18.1329 1.00721 18.548 1.31341 18.8542C1.61961 19.1604 2.03477 19.3327 2.46781 19.3332H6.66781V16.9998H3.16781V13.4998H0.834473V17.6998Z" fill="black"/>
<path d="M5.49772 5.32979H7.83105V14.6631H5.49772V5.32979Z" fill="black"/>
<path d="M13.6655 5.32979H11.3322V14.6631H13.6655V5.32979Z" fill="black"/>
<path d="M17.1644 5.32979H19.4977V14.6631H17.1644V5.32979Z" fill="black"/>
<path d="M10.1651 5.33014H8.99843V14.6635H10.1651V5.33014Z" fill="black"/>
<path d="M14.8333 5.33014H16V14.6635H14.8333V5.33014Z" fill="black"/>
</svg>
