<svg width="21" height="20" viewBox="0 0 21 20" fill="none" xmlns="http://www.w3.org/2000/svg">
<path fill-rule="evenodd" clip-rule="evenodd" d="M9.3881 0.499999C9.3881 0.223857 9.61196 0 9.8881 0H11.1103C11.3865 0 11.6103 0.223858 11.6103 0.5V9.36554C11.6107 9.37332 11.6109 9.38115 11.6109 9.38902V10.6112C11.6109 10.8874 11.387 11.1112 11.1109 11.1112H0.999755C0.723613 11.1112 0.499756 10.8874 0.499756 10.6112V9.38902C0.499756 9.11288 0.723614 8.88902 0.999756 8.88902H9.3881V0.499999ZM15.0447 0.111247C14.4372 0.111247 13.9447 0.603732 13.9447 1.21125V5.45569C13.9447 6.0632 14.4372 6.55569 15.0447 6.55569H19.2892C19.8967 6.55569 20.3892 6.06321 20.3892 5.45569V1.21125C20.3892 0.603735 19.8967 0.111247 19.2892 0.111247H15.0447ZM15.9447 4.55569V2.11125H18.3892V4.55569H15.9447ZM1.71141 13.4446C1.1039 13.4446 0.61141 13.9371 0.61141 14.5446V18.789C0.61141 19.3965 1.1039 19.889 1.71141 19.889H5.95585C6.56337 19.889 7.05585 19.3965 7.05585 18.789V14.5446C7.05585 13.9371 6.56337 13.4446 5.95585 13.4446H1.71141ZM2.61141 17.889V15.4446H5.05585V17.889H2.61141ZM0.61141 1.21125C0.61141 0.603732 1.1039 0.111247 1.71141 0.111247H5.95585C6.56337 0.111247 7.05585 0.603735 7.05585 1.21125V5.45569C7.05585 6.06321 6.56337 6.55569 5.95585 6.55569H1.71141C1.1039 6.55569 0.61141 6.0632 0.61141 5.45569V1.21125ZM2.61141 2.11125V4.55569H5.05585V2.11125H2.61141ZM9.8881 13.3333C9.61196 13.3333 9.3881 13.5572 9.3881 13.8333V19.5C9.3881 19.7761 9.61196 20 9.8881 20H11.1103C11.3865 20 11.6103 19.7761 11.6103 19.5V13.8333C11.6103 13.5572 11.3865 13.3333 11.1103 13.3333H9.8881ZM14.3331 8.88875C14.0569 8.88875 13.8331 9.11261 13.8331 9.38875V9.38902V10.6112V15.0554C13.8331 15.3316 14.0569 15.5554 14.3331 15.5554H15.5553C15.8315 15.5554 16.0553 15.3316 16.0553 15.0554V11.1112H19.9998C20.2759 11.1112 20.4998 10.8874 20.4998 10.6112V9.38902C20.4998 9.11288 20.2759 8.88902 19.9998 8.88902H15.572L15.5553 8.88875H14.3331ZM18.2781 13.8333C18.2781 13.5572 18.5019 13.3333 18.7781 13.3333H20.0003C20.2764 13.3333 20.5003 13.5572 20.5003 13.8333V19.5C20.5003 19.7761 20.2764 20 20.0003 20H19.9998H18.7781H14.3331C14.0569 20 13.8331 19.7761 13.8331 19.5V18.2778C13.8331 18.0016 14.0569 17.7778 14.3331 17.7778H18.2781V13.8333Z" fill="black"/>
</svg>
